<svg width="60" height="47" viewBox="0 0 60 47" fill="none" xmlns="http://www.w3.org/2000/svg">
<g clip-path="url(#clip0_273_2)">
<path d="M14.7233 45.1334H14.7524C14.8396 45.1916 14.9559 45.2206 15.0721 45.2206C15.1302 45.2206 15.1884 45.2206 15.2465 45.1916L29.983 41.1804L44.7195 45.1916C44.7776 45.2206 44.8358 45.2206 44.8939 45.2206C45.0102 45.2206 45.0974 45.1916 45.2136 45.1334H45.2427L57.4504 37.6925C57.712 37.5472 57.8283 37.2275 57.7411 36.9368L50.9978 13.2189C50.9396 13.0154 50.7943 12.8701 50.5908 12.7829C50.3874 12.6957 50.1839 12.7248 50.0095 12.812L43.2953 16.5905C42.9755 16.7649 42.8593 17.2009 43.0337 17.5207C43.2081 17.8404 43.615 17.9566 43.9638 17.7823L49.9514 14.4397L56.3459 36.8496L45.4752 43.4767L42.8883 22.8397C42.8302 22.4619 42.4814 22.2003 42.1326 22.2584C41.7548 22.3166 41.4932 22.6363 41.5513 23.0141L44.08 43.7092L30.5643 39.9597V36.2683C30.5643 35.8904 30.3609 35.5998 29.983 35.5998C29.6051 35.5998 29.4017 35.8904 29.4017 36.2683V39.9597L15.915 43.622L18.4728 22.956C18.531 22.5782 18.2403 22.2584 17.8625 22.2003C17.4846 22.1712 17.1358 22.4038 17.1067 22.7816L14.5199 43.4185L3.67822 36.7915L10.0437 14.3815L16.0313 17.7241C16.351 17.8985 16.7579 17.7823 16.9614 17.4625C17.1358 17.1428 17.0195 16.7359 16.6998 16.5324L9.95649 12.7829C9.78209 12.6957 9.54957 12.6666 9.37517 12.7538C9.17171 12.841 9.02638 12.9864 8.96824 13.1898L2.22492 36.9077C2.13772 37.1984 2.25398 37.5181 2.51558 37.6634L14.7233 45.1334V45.1334Z" fill="#3940B2" stroke="#3940B2" stroke-width="1.69871"/>
<path d="M29.5178 33.5358C29.634 33.652 29.8084 33.7102 29.9828 33.7102C30.1572 33.7102 30.3025 33.652 30.4479 33.5358C30.9129 33.1288 41.522 23.3917 41.522 13.393C41.522 6.94031 36.4646 1.88281 30.0119 1.88281C23.5592 1.88281 18.4727 6.91124 18.4727 13.3639C18.4727 23.2173 29.0818 33.0998 29.5178 33.5358ZM29.9828 3.19079C35.767 3.19079 40.1559 7.55069 40.1559 13.3639C40.1559 21.6187 32.0465 30.0769 29.9828 32.0824C27.9482 30.0769 19.8097 21.5024 19.8097 13.3639C19.8097 7.57976 24.1987 3.19079 29.9828 3.19079Z" fill="#3940B2" stroke="#3940B2" stroke-width="1.69871"/>
<path d="M36.0867 13.3636C36.0867 9.99198 33.3544 7.25977 29.9828 7.25977C26.6111 7.25977 23.8789 9.99198 23.8789 13.3636C23.8789 16.7353 26.6111 19.4675 29.9828 19.4675C33.3544 19.4675 36.0867 16.7353 36.0867 13.3636ZM29.9828 18.1014C27.3668 18.1014 25.245 15.9796 25.245 13.3636C25.245 10.7477 27.3668 8.62587 29.9828 8.62587C32.5987 8.62587 34.7205 10.7477 34.7205 13.3636C34.7205 15.9796 32.5987 18.1014 29.9828 18.1014Z" fill="#3940B2" stroke="#3940B2" stroke-width="1.69871"/>
</g>
<defs>
<clipPath id="clip0_273_2">
<rect width="60" height="46.7894" fill="white"/>
</clipPath>
</defs>
</svg>
