<svg width="60" height="60" viewBox="0 0 60 60" fill="none" xmlns="http://www.w3.org/2000/svg">
<g clip-path="url(#clip0_274_7)">
<path d="M43.6966 23.7542H41.2153V22.2267C41.2153 19.4408 34.7766 17.4854 31.2912 17.4854C27.8053 17.4854 21.367 19.4408 21.367 22.2267V23.7542H18.8857V22.2267C18.8857 17.0692 27.6403 14.9858 31.2912 14.9858C34.9424 14.9858 43.6966 17.0692 43.6966 22.2267V23.7542Z" fill="#779DCB"/>
<path d="M28.5787 60.0003H23.0804C22.8166 59.9997 22.5599 59.9151 22.3474 59.7587C22.1349 59.6024 21.9778 59.3824 21.8987 59.1307L18.21 47.502H11.1871C7.22458 47.502 4 44.2536 4 40.2611V25.249C4 22.3574 6.335 20.0049 9.205 20.0049H9.39208C12.1358 20.0049 14.7817 21.1645 16.6517 23.1861L20.6471 27.5041H27.57C27.9175 27.5041 28.2492 27.6511 28.4842 27.9095C28.7192 28.167 28.8362 28.5132 28.8058 28.8615C28.6242 30.9861 27.0942 35.0036 22.6079 35.0036H16.1429C15.9775 35.0035 15.8139 34.9702 15.6616 34.9057C15.5093 34.8412 15.3715 34.7469 15.2562 34.6282L15.1646 34.5336V37.5032H20.1075C22.7337 37.5032 25.0842 39.1886 25.955 41.697C25.97 41.7403 25.9829 41.7849 25.9933 41.8295L29.7875 58.4707C29.8295 58.6538 29.8299 58.844 29.7885 59.0272C29.7472 59.2105 29.6653 59.3821 29.5487 59.5295C29.4332 59.6762 29.2858 59.7947 29.1178 59.8763C28.9498 59.9578 28.7655 60.0002 28.5787 60.0003V60.0003ZM23.9867 57.5007H27.0208L23.5917 42.4615C23.0521 40.9882 21.66 40.0028 20.1075 40.0028H13.9242C13.2392 40.0028 12.6837 39.4432 12.6837 38.7528V31.9799L9.19125 28.3853L10.965 26.6361L16.665 32.5032H22.6083C24.6696 32.5032 25.5983 31.122 26.0125 30.0036H20.1075C19.937 30.0035 19.7683 29.9681 19.6121 29.8996C19.4559 29.8311 19.3156 29.7311 19.2 29.6057L14.8371 24.8903C14.1421 24.1399 13.2999 23.5408 12.3631 23.1304C11.4262 22.72 10.4149 22.5071 9.39208 22.5049H9.205C7.70292 22.5049 6.48125 23.7357 6.48125 25.2495V40.2611C6.48125 42.8757 8.59208 45.0024 11.1871 45.0024H19.1162C19.38 45.003 19.6368 45.0876 19.8493 45.244C20.0617 45.4003 20.2189 45.6203 20.2979 45.872L23.9867 57.5007V57.5007Z" fill="#779DCB"/>
<path d="M12.6839 18.7545C9.32144 18.7545 6.48145 15.8928 6.48145 12.5053V11.2553C6.48145 7.86409 9.32186 4.99951 12.6839 4.99951C16.046 4.99951 18.8864 7.86409 18.8864 11.2553V12.5053C18.8864 15.9508 16.1039 18.7545 12.6839 18.7545V18.7545ZM12.6839 7.4991C10.6669 7.4991 8.96228 9.21951 8.96228 11.2553V12.5053C8.96228 14.5374 10.6669 16.2549 12.6839 16.2549C14.701 16.2549 16.4056 14.5374 16.4056 12.5053V11.2553C16.4056 9.21951 14.701 7.4991 12.6839 7.4991V7.4991Z" fill="#779DCB"/>
<path d="M39.2703 60.0002H33.7728C33.5859 60.0001 33.4015 59.9577 33.2334 59.8761C33.0654 59.7945 32.918 59.6758 32.8024 59.529C32.6861 59.3815 32.6044 59.2098 32.5631 59.0266C32.5218 58.8435 32.5219 58.6533 32.5636 58.4702L36.3578 41.829C36.3674 41.7844 36.3807 41.7398 36.3953 41.6965C37.2674 39.1881 39.6178 37.5027 42.244 37.5027H47.4182V34.3006L47.0861 34.6356C46.9713 34.752 46.8346 34.8444 46.6838 34.9075C46.533 34.9706 46.3712 35.0031 46.2078 35.0031H39.9749C35.489 35.0031 33.9586 30.9856 33.777 28.8611C33.7618 28.6888 33.7825 28.5153 33.8377 28.3514C33.8929 28.1876 33.9815 28.0369 34.0978 27.909C34.2136 27.7814 34.3548 27.6795 34.5123 27.6097C34.6698 27.5398 34.8401 27.5037 35.0124 27.5036H41.7045L45.6986 23.1856C47.569 21.164 50.2149 20.0044 52.9578 20.0044H53.1457C56.0932 20.0044 58.5828 22.4061 58.5828 25.2486V40.2602C58.5828 44.1848 55.1857 47.5011 51.164 47.5011H44.1415L40.4515 59.1306C40.3726 59.3823 40.2155 59.6022 40.0031 59.7586C39.7907 59.9149 39.534 59.9996 39.2703 60.0002V60.0002ZM35.3307 57.5006H38.364L42.054 45.8711C42.1331 45.6195 42.2903 45.3997 42.5026 45.2434C42.715 45.0872 42.9716 45.0026 43.2353 45.0019H51.1645C53.8407 45.0019 56.1024 42.8306 56.1024 40.2606V25.249C56.1024 23.7869 54.7211 22.5044 53.1465 22.5044H52.9586C51.9359 22.5066 50.9246 22.7197 49.9879 23.1302C49.0512 23.5408 48.2092 24.1401 47.5145 24.8906L43.152 29.6056C43.0363 29.731 42.896 29.831 42.7398 29.8995C42.5836 29.9679 42.415 30.0034 42.2445 30.0036H36.5711C36.984 31.1211 37.9136 32.5031 39.9753 32.5031H45.6932L51.5107 26.6281L53.2674 28.3931L49.8995 31.7948V38.7527C49.8995 39.4431 49.3445 40.0027 48.659 40.0027H42.2445C40.6915 40.0027 39.2995 40.9881 38.759 42.4615L35.3307 57.5006V57.5006Z" fill="#779DCB"/>
<path d="M49.8998 18.7545C46.5381 18.7545 43.6973 15.8928 43.6973 12.5053V11.2553C43.6973 7.86409 46.5381 4.99951 49.8998 4.99951C53.2614 4.99951 56.1023 7.86409 56.1023 11.2553V12.5053C56.1023 15.8928 53.2614 18.7545 49.8998 18.7545ZM49.8998 7.4991C47.8827 7.4991 46.1781 9.21951 46.1781 11.2553V12.5053C46.1781 14.5374 47.8827 16.2549 49.8998 16.2549C51.9168 16.2549 53.6214 14.5374 53.6214 12.5053V11.2553C53.6214 9.21951 51.9168 7.4991 49.8998 7.4991V7.4991Z" fill="#779DCB"/>
<path d="M48.6588 32.5029V35.0025H13.9238V32.5029H48.6588V32.5029Z" fill="#779DCB"/>
<path d="M31.2923 13.755C27.9298 13.755 25.0898 10.8933 25.0898 7.50583V6.25583C25.0898 2.86458 27.9298 0 31.2923 0C34.654 0 37.4948 2.86458 37.4948 6.25583V7.50583C37.4948 10.8937 34.654 13.755 31.2923 13.755V13.755ZM31.2923 2.49958C29.2753 2.49958 27.5707 4.22 27.5707 6.25583V7.50583C27.5707 9.53792 29.2753 11.2554 31.2923 11.2554C33.3094 11.2554 35.014 9.53792 35.014 7.50583V6.25583C35.014 4.22 33.3094 2.49958 31.2923 2.49958Z" fill="#779DCB"/>
</g>
<defs>
<clipPath id="clip0_274_7">
<rect width="60" height="60" fill="white"/>
</clipPath>
</defs>
</svg>
