<svg width="60" height="47" viewBox="0 0 60 47" fill="none" xmlns="http://www.w3.org/2000/svg">
<path d="M51.1631 46H5.16337C2.49337 46 0.321289 43.8279 0.321289 41.1579V9.68437C0.321289 7.01436 2.49337 4.84229 5.16337 4.84229H6.37389V7.26333H5.16337C3.82817 7.26333 2.74233 8.34916 2.74233 9.68437V41.1579C2.74233 42.4931 3.82817 43.5789 5.16337 43.5789H51.1631C52.4983 43.5789 53.5842 42.4931 53.5842 41.1579V9.68437C53.5842 8.34916 52.4983 7.26333 51.1631 7.26333H19.6896V4.84229H51.1631C53.8331 4.84229 56.0052 7.01436 56.0052 9.68437V41.1579C56.0052 43.8279 53.8331 46 51.1631 46Z" fill="#779DCB"/>
<path d="M43.899 21.7891H26.9517C26.6307 21.7891 26.3228 21.6615 26.0958 21.4345C25.8687 21.2075 25.7412 20.8996 25.7412 20.5785V14.5259C25.7412 14.2049 25.8687 13.897 26.0958 13.67C26.3228 13.443 26.6307 13.3154 26.9517 13.3154H43.899C44.2201 13.3154 44.528 13.443 44.755 13.67C44.982 13.897 45.1095 14.2049 45.1095 14.5259V20.5785C45.1095 20.8996 44.982 21.2075 44.755 21.4345C44.528 21.6615 44.2201 21.7891 43.899 21.7891V21.7891ZM28.1623 19.368H42.6885V15.7365H28.1623V19.368Z" fill="#779DCB"/>
<path d="M16.0587 41.1577H10.0061C7.33614 41.1577 5.16406 38.9856 5.16406 36.3156V4.84208C5.16406 2.17208 7.33614 0 10.0061 0H16.0587C18.7287 0 20.9008 2.17208 20.9008 4.84208V36.3156C20.9008 38.9856 18.7287 41.1577 16.0587 41.1577ZM10.0061 2.42104C8.67094 2.42104 7.5851 3.50688 7.5851 4.84208V36.3156C7.5851 37.6508 8.67094 38.7366 10.0061 38.7366H16.0587C17.3939 38.7366 18.4798 37.6508 18.4798 36.3156V4.84208C18.4798 3.50688 17.3939 2.42104 16.0587 2.42104H10.0061Z" fill="#779DCB"/>
<path d="M31.7941 24.21V26.631H29.373V24.21H31.7941Z" fill="#779DCB"/>
<path d="M36.6369 24.21V26.631H34.2158V24.21H36.6369Z" fill="#779DCB"/>
<path d="M41.4787 24.21V26.631H39.0576V24.21H41.4787Z" fill="#779DCB"/>
<path d="M31.7941 29.0527V31.4738H29.373V29.0527H31.7941Z" fill="#779DCB"/>
<path d="M36.6369 29.0527V31.4738H34.2158V29.0527H36.6369Z" fill="#779DCB"/>
<path d="M41.4787 29.0527V31.4738H39.0576V29.0527H41.4787Z" fill="#779DCB"/>
<path d="M31.7941 33.895V36.3161H29.373V33.895H31.7941Z" fill="#779DCB"/>
<path d="M36.6369 33.895V36.3161H34.2158V33.895H36.6369Z" fill="#779DCB"/>
<path d="M41.4787 33.895V36.3161H39.0576V33.895H41.4787Z" fill="#779DCB"/>
</svg>
