<svg width="53" height="60" viewBox="0 0 53 60" fill="none" xmlns="http://www.w3.org/2000/svg">
<g clip-path="url(#clip0_274_16)">
<path d="M2.85542 59.9999H49.5904C51.2169 59.9999 52.4096 58.6264 52.4096 57.036V4.66255C52.4096 3.03604 51.2169 1.80713 49.5904 1.80713H42.1084C41.6024 1.80713 41.1687 2.20472 41.1687 2.71074C41.1687 3.21677 41.6024 3.61436 42.1084 3.61436H49.5904C50.1687 3.61436 50.6024 4.08424 50.6024 4.66255V56.9999C50.6024 57.5782 50.1687 57.7951 49.5904 57.7951H2.85542C2.27711 57.7951 1.80723 57.5782 1.80723 56.9999V4.66255C1.80723 4.08424 2.27711 3.61436 2.85542 3.61436H10.3373C10.8434 3.61436 11.2771 3.21677 11.2771 2.71074C11.2771 2.20472 10.8434 1.80713 10.3373 1.80713H2.85542C1.22892 1.80713 0 3.03604 0 4.66255V56.9999C0 58.6264 1.22892 59.9999 2.85542 59.9999V59.9999Z" fill="#779DCB" stroke="#779DCB" stroke-width="0.868966"/>
<path d="M10.3374 9.39707C10.8434 9.39707 11.2772 8.99948 11.2772 8.49346C11.2772 7.98743 10.8434 7.58984 10.3374 7.58984H6.57838C6.07236 7.58984 5.7832 7.879 5.7832 8.42117V53.2766C5.7832 53.7826 6.07236 54.2164 6.57838 54.2164H45.8314C46.3374 54.2164 46.6266 53.7826 46.6266 53.2766V8.42117C46.6266 7.91514 46.3736 7.58984 45.8314 7.58984H42.1085C41.6025 7.58984 41.1687 7.98743 41.1687 8.49346C41.1687 8.99948 41.6025 9.39707 42.1085 9.39707H44.8193V52.4091H7.59043V9.39707H10.3374Z" fill="#779DCB" stroke="#779DCB" stroke-width="0.868966"/>
<path d="M16.8792 13.012H35.5659C37.843 13.012 39.3973 11.6024 39.3973 9.36145V0.939759C39.3973 0.433735 38.8912 0 38.3852 0H14.0599C13.5539 0 13.0117 0.433735 13.0117 0.939759V9.36145C13.0117 11.6024 14.6021 13.012 16.8792 13.012ZM15.1804 1.80723H37.59V9.36145C37.59 10.5904 36.7949 11.2048 35.5659 11.2048H16.8792C15.6503 11.2048 15.1804 10.5904 15.1804 9.36145V1.80723Z" fill="#779DCB" stroke="#779DCB" stroke-width="0.868966"/>
<path d="M15.9398 30.0001H36.506C37.012 30.0001 37.4458 29.6025 37.4458 29.0965C37.4458 28.5905 37.012 28.1929 36.506 28.1929H15.9398C15.4337 28.1929 15 28.5905 15 29.0965C15 29.6025 15.4337 30.0001 15.9398 30.0001Z" fill="#779DCB" stroke="#779DCB" stroke-width="0.868966"/>
<path d="M15.9398 22.4093H36.506C37.012 22.4093 37.4458 22.0117 37.4458 21.5057C37.4458 20.9996 37.012 20.6021 36.506 20.6021H15.9398C15.4337 20.6021 15 20.9996 15 21.5057C15 22.0117 15.4337 22.4093 15.9398 22.4093Z" fill="#779DCB" stroke="#779DCB" stroke-width="0.868966"/>
<path d="M15.9398 37.2286H36.506C37.012 37.2286 37.4458 36.831 37.4458 36.325C37.4458 35.819 37.012 35.4214 36.506 35.4214H15.9398C15.4337 35.4214 15 35.819 15 36.325C15 36.831 15.4337 37.2286 15.9398 37.2286Z" fill="#779DCB" stroke="#779DCB" stroke-width="0.868966"/>
<path d="M15.9398 44.8194H36.506C37.012 44.8194 37.4458 44.4218 37.4458 43.9158C37.4458 43.4098 37.012 43.0122 36.506 43.0122H15.9398C15.4337 43.0122 15 43.4098 15 43.9158C15 44.4218 15.4337 44.8194 15.9398 44.8194Z" fill="#779DCB" stroke="#779DCB" stroke-width="0.868966"/>
</g>
<defs>
<clipPath id="clip0_274_16">
<rect width="52.4096" height="60" fill="white"/>
</clipPath>
</defs>
</svg>
